#!OML:ASF Y:\EmotionMaleHayes\Project 1\Capture day 1\Session 1\Male1.ASF
:FULLY-SPECIFIED
:DEGREES
273
root -19.2227 15.7489 -5.85553 27.8526 17.7848 3.34909
lowerback 29.6111 -4.28109 -14.0447
upperback 14.022 -8.78454 -12.6058
thorax -0.0226728 -4.18124 -3.75399
lowerneck -16.3817 16.0331 14.4287
upperneck -1.30546 20.273 -22.9032
head 6.28033 9.14164 -6.91137
rclavicle 7.63333e-014 6.67916e-014
rhumerus -47.9105 -14.0237 -0.654335
rradius 40.1119
rwrist -32.9308
rhand -18.8737 -41.1394
rfingers 7.12502
rthumb 7.42704 -70.989
lclavicle 7.63333e-014 6.67916e-014
lhumerus -11.111 -16.1871 61.0969
lradius 74.762
lwrist -12.801
lhand -16.4881 -24.0048
lfingers 7.12502
lthumb 9.72924 5.75049
rfemur -53.7907 -2.67704 19.675
rtibia 60.1354
rfoot -32.7934 -7.65607
rtoes -2.77987
lfemur 7.48927 19.7554 20.8026
ltibia 49.6405
lfoot -17.6839 11.6482
ltoes -1.47601
274
root -19.1497 15.7405 -5.86685 28.577 20.0234 3.42791
lowerback 30.0977 -4.36247 -13.7509
upperback 14.1624 -8.79141 -11.9195
thorax -0.0161527 -4.18354 -3.10863
lowerneck -16.3142 15.6077 12.8621
upperneck -1.73454 19.894 -22.6576
head 5.88186 9.00781 -6.69984
rclavicle 9.22361e-014 7.31528e-014
rhumerus -45.4915 -13.8604 0.0470589
rradius 39.8497
rwrist -33.3622
rhand -20.0297 -41.843
rfingers 7.12502
rthumb 6.31112 -71.729
lclavicle 9.22361e-014 7.31528e-014
lhumerus -12.8649 -15.5589 60.2669
lradius 78.7616
lwrist -13.4241
lhand -17.1398 -24.0526
lfingers 7.12502
lthumb 9.1004 5.73111
rfemur -54.3819 -4.02768 20.048
rtibia 60.1633
rfoot -32.8477 -8.58877
rtoes -3.98577
lfemur 3.94959 21.5679 23.414
ltibia 50.8349
lfoot -16.8939 11.7176
ltoes -8.83585
275
root -19.1009 15.8946 -5.77909 24.4863 20.7322 2.59885
lowerback 36.7181 -2.029 -15.4872
upperback 13.9985 -7.59211 -11.1719
thorax -1.99816 -3.46153 -1.56467
lowerneck -16.3969 15.0378 12.0494
upperneck -1.80727 19.2041 -22.1278
head 5.60687 8.70397 -6.55205
rclavicle -9.85972e-014 -7.79236e-014
rhumerus -44.0096 -14.0544 0.729819
rradius 39.3034
rwrist -32.9099
rhand -20.0466 -42.1243
rfingers 7.12502
rthumb 6.29487 -72.0108
lclavicle -9.85972e-014 -7.79236e-014
lhumerus -14.0988 -15.3942 58.8242
lradius 82.3576
lwrist -14.0215
lhand -17.8043 -24.3672
lfingers 7.12502
lthumb 8.45924 5.44337
rfemur -48.1687 -3.30717 19.7731
rtibia 57.8952
rfoot -33.0588 -9.92373
rtoes -4.1499
lfemur 5.97106 20.4143 26.3985
ltibia 50.284
lfoot -17.7648 12.6613
ltoes -2.92853
276
root -19.0082 15.8809 -5.78571 25.4256 23.3354 2.39078
lowerback 36.7053 -2.61919 -13.8622
upperback 14.164 -7.71314 -11.2324
thorax -2.22124 -3.4494 -2.24379
lowerneck -16.1793 14.6952 12.0213
upperneck -1.86385 18.7172 -21.6835
head 5.41437 8.50686 -6.51554
rclavicle -3.18055e-015 2.3059e-014
rhumerus -42.1835 -14.4158 0.885971
rradius 38.4863
rwrist -31.608
rhand -19.1011 -41.4459
rfingers 7.12502
rthumb 7.20761 -71.3032
lclavicle -3.18055e-015 2.3059e-014
lhumerus -15.3755 -15.089 56.5526
lradius 85.7681
lwrist -14.1038
lhand -18.1773 -24.5725
lfingers 7.12502
lthumb 8.09918 5.25225
rfemur -48.911 -4.51625 20.2408
rtibia 57.8388
rfoot -33.4078 -11.1614
rtoes -4.71311
lfemur 1.33477 22.6414 28.6428
ltibia 51.7004
lfoot -17.6752 13.2529
ltoes -4.24675
277
root -18.9103 15.8749 -5.78819 26.3955 25.8569 2.11237
lowerback 36.6548 -3.16884 -12.6591
upperback 14.1346 -7.92766 -10.8229
thorax -2.37471 -3.51512 -2.30727
lowerneck -16.0311 14.5036 11.3472
upperneck -2.01026 18.559 -21.5721
head 5.245 8.45784 -6.42261
rclavicle 1.90833e-014 -7.4743e-014
rhumerus -39.8172 -16.0405 1.52477
rradius 38.0663
rwrist -28.6832
rhand -19.1537 -41.3701
rfingers 7.12502
rthumb 7.15675 -71.2291
lclavicle 1.90833e-014 -7.4743e-014
lhumerus -17.2297 -14.2244 54.6092
lradius 89.4022
lwrist -14.02
lhand -18.9189 -24.6653
lfingers 7.12502
lthumb 7.38347 5.1859
rfemur -49.6515 -5.40521 20.7475
rtibia 57.6626
rfoot -33.6744 -12.6161
rtoes -5.91315
lfemur -3.66075 25.1641 30.2797
ltibia 53.3244
lfoot -17.8203 12.397
ltoes -5.66591
